<?xml version="1.0" standalone="no"?>
<!DOCTYPE svg PUBLIC "-//W3C//DTD SVG 20010904//EN"
 "http://www.w3.org/TR/2001/REC-SVG-20010904/DTD/svg10.dtd">
<svg version="1.0" xmlns="http://www.w3.org/2000/svg"
 width="512.000000pt" height="512.000000pt" viewBox="0 0 512.000000 512.000000"
 preserveAspectRatio="xMidYMid meet">

<g transform="translate(0.000000,512.000000) scale(0.100000,-0.100000)"
fill="#000000" stroke="none">
<path d="M1983 5105 c-143 -31 -304 -153 -368 -277 -24 -47 -35 -58 -55 -58
-102 -1 -297 -77 -318 -125 -16 -36 -15 -48 8 -77 30 -38 51 -39 133 -2 41 19
95 37 121 40 l46 7 0 -52 c0 -30 11 -86 25 -128 l26 -75 -23 -47 c-12 -25 -24
-71 -26 -102 -4 -51 -2 -58 23 -77 15 -12 39 -22 52 -22 30 0 73 42 73 72 1
40 37 104 75 134 47 35 135 45 183 20 61 -32 116 -10 128 49 8 43 -24 79 -89
102 -66 23 -178 23 -231 -1 -47 -20 -52 -15 -62 62 -9 71 1 122 36 191 81 161
287 262 442 217 72 -20 134 -68 173 -131 l30 -48 5 -921 c3 -507 9 -929 14
-939 21 -43 85 -49 121 -12 22 22 25 33 25 104 l0 80 30 -9 c62 -18 158 -78
215 -135 67 -67 117 -153 140 -240 18 -73 19 -213 1 -280 -39 -147 -145 -278
-278 -345 -44 -22 -87 -40 -94 -40 -12 0 -14 50 -14 295 l0 296 -25 24 c-25
26 -63 32 -95 15 -28 -15 -40 -65 -40 -166 l0 -94 -41 -27 c-27 -18 -58 -28
-95 -31 -79 -7 -133 17 -190 84 -38 44 -52 54 -78 54 -42 0 -76 -35 -76 -77 0
-21 13 -47 39 -80 96 -122 273 -174 406 -119 l35 15 2 -775 3 -776 28 -24 c34
-29 71 -25 105 13 21 23 22 31 22 204 l0 179 356 0 357 0 75 -74 76 -74 -21
-44 c-49 -97 -50 -197 -2 -294 45 -95 160 -164 271 -164 127 0 226 60 285 173
24 45 28 64 28 137 0 73 -4 92 -27 136 -34 65 -114 137 -175 158 -55 19 -136
21 -199 5 l-46 -12 -86 86 c-61 60 -100 91 -131 102 -36 12 -105 15 -402 15
l-359 0 0 150 c0 140 1 150 19 150 47 0 219 53 305 94 52 25 134 75 181 111
l87 65 445 0 446 0 90 -88 89 -89 -17 -34 c-27 -50 -32 -164 -10 -228 22 -69
99 -151 167 -182 74 -33 182 -33 256 0 66 30 144 113 166 177 26 77 21 168
-12 239 -71 149 -234 215 -395 160 l-57 -19 -93 91 c-50 51 -109 99 -129 108
-31 13 -98 15 -423 15 -212 0 -385 3 -385 8 0 4 14 27 31 52 76 112 143 297
164 453 l6 47 513 0 513 0 11 -39 c16 -53 84 -127 146 -158 68 -35 172 -42
245 -18 69 22 151 99 182 167 33 74 33 182 0 256 -30 66 -113 144 -177 166
-77 26 -168 21 -239 -13 -71 -33 -137 -102 -158 -164 l-14 -42 -510 -3 -510
-2 -16 99 c-25 152 -82 301 -156 411 -17 25 -31 48 -31 53 0 4 173 7 385 7
325 0 392 2 423 15 20 9 79 57 129 108 l93 91 57 -19 c160 -55 325 12 394 160
34 71 39 162 13 238 -21 61 -93 141 -158 175 -43 22 -64 26 -136 26 -72 0 -93
-4 -136 -26 -67 -35 -138 -115 -160 -180 -21 -63 -15 -177 11 -227 l17 -34
-89 -89 -90 -88 -446 0 -447 0 -71 55 c-131 101 -279 170 -433 202 l-86 18 0
147 0 148 359 0 c297 0 366 3 402 15 31 11 70 42 131 102 l86 86 46 -12 c63
-16 144 -14 199 5 61 21 141 93 175 158 23 44 27 63 27 136 -1 100 -22 155
-87 219 -59 60 -119 85 -210 89 -65 4 -85 0 -131 -21 -175 -80 -240 -264 -154
-435 l21 -44 -76 -74 -75 -74 -357 0 -356 0 0 319 c0 175 -5 343 -10 372 -23
124 -115 251 -221 305 -108 54 -210 66 -336 39z m1767 -557 c57 -39 75 -72 75
-137 0 -48 -5 -64 -29 -95 -52 -69 -137 -85 -211 -41 -55 32 -79 80 -73 150 8
91 67 144 159 145 32 0 56 -7 79 -22z m796 -717 c87 -39 119 -142 71 -224 -34
-57 -81 -81 -151 -75 -63 5 -107 35 -131 89 -22 49 -16 116 15 159 25 35 90
70 130 70 14 0 43 -9 66 -19z m-1911 -380 c160 -41 306 -123 415 -233 359
-359 372 -915 31 -1280 -139 -148 -300 -238 -503 -282 l-28 -6 0 113 0 113 73
22 c101 30 189 85 278 172 85 84 138 170 177 288 22 65 26 95 26 197 0 84 -5
139 -18 185 -60 218 -236 407 -451 482 l-80 27 -3 111 c-1 60 1 110 5 110 4 0
40 -9 78 -19z m2241 -750 c119 -54 117 -224 -2 -282 -162 -78 -305 134 -172
258 48 45 108 54 174 24z m-320 -1127 c21 -10 45 -34 61 -61 86 -147 -87 -306
-227 -210 -128 87 -66 287 88 287 24 0 59 -7 78 -16z m-822 -718 c18 -8 46
-31 62 -52 24 -31 29 -47 29 -95 0 -89 -54 -148 -143 -157 -60 -5 -113 17
-144 61 -31 43 -36 130 -10 177 37 68 130 98 206 66z"/>
<path d="M1035 4390 c-11 -12 -26 -51 -36 -88 l-17 -67 -63 -12 c-137 -28
-245 -111 -303 -232 -25 -55 -32 -81 -34 -152 -4 -77 -6 -88 -25 -97 -45 -20
-134 -94 -178 -148 -55 -66 -101 -157 -123 -241 -20 -76 -21 -230 -1 -302 l14
-54 -70 -75 c-111 -119 -181 -280 -196 -449 -5 -67 -4 -73 20 -97 33 -33 76
-34 104 -3 15 15 23 42 28 91 25 245 183 448 411 526 31 11 64 20 73 20 9 0
27 -21 40 -46 31 -57 108 -128 165 -149 38 -15 48 -15 72 -3 60 28 56 109 -6
140 -123 61 -153 180 -74 295 27 39 35 59 30 77 -14 56 -72 80 -114 49 -38
-28 -91 -109 -103 -159 -10 -40 -15 -45 -53 -54 -72 -19 -110 -32 -149 -52
-22 -11 -42 -17 -45 -13 -12 12 -14 153 -3 205 28 128 130 260 246 315 98 47
97 44 89 155 -6 85 -4 101 16 148 25 57 82 115 139 140 22 9 68 15 119 16 104
1 116 12 126 115 3 38 11 82 16 96 16 41 12 90 -8 108 -26 24 -85 22 -107 -3z"/>
<path d="M1809 3749 c-19 -19 -21 -28 -14 -83 10 -81 8 -112 -12 -153 -14 -30
-20 -34 -42 -29 -88 20 -136 24 -187 16 -102 -17 -152 -67 -126 -125 18 -40
52 -50 116 -35 139 33 269 -46 282 -172 8 -71 14 -88 34 -108 40 -40 111 -14
126 46 14 54 -26 183 -77 254 -18 25 -18 26 12 87 51 102 50 231 -2 297 -26
33 -79 36 -110 5z"/>
<path d="M109 2141 c-37 -30 -31 -75 21 -151 24 -36 72 -93 107 -127 63 -62
64 -62 49 -90 -46 -89 -60 -280 -30 -397 50 -193 201 -358 392 -426 57 -21 65
-28 88 -71 65 -129 205 -219 340 -219 l52 0 11 -66 c52 -294 277 -524 569
-580 270 -52 537 54 706 279 43 58 48 103 13 135 -36 34 -74 29 -111 -15 -126
-147 -217 -212 -346 -244 -170 -41 -372 11 -502 130 -101 92 -166 215 -183
346 -6 49 -6 50 30 69 46 25 132 117 141 150 13 51 -49 106 -98 87 -13 -5 -41
-29 -64 -53 -101 -110 -258 -118 -367 -19 -99 89 -114 228 -37 342 44 65 40
108 -12 135 -40 21 -77 5 -113 -46 -35 -50 -74 -148 -75 -183 0 -25 -3 -27
-22 -22 -38 11 -127 76 -165 119 -72 84 -113 195 -113 306 0 65 21 165 38 182
5 5 29 1 58 -10 82 -32 189 -53 218 -42 52 19 63 95 20 129 -15 12 -38 21 -51
21 -43 0 -172 49 -237 90 -70 45 -149 123 -191 190 -15 25 -34 51 -43 58 -23
18 -66 15 -93 -7z"/>
<path d="M1882 1581 c-15 -17 -40 -46 -57 -67 -38 -47 -101 -75 -169 -75 -65
0 -112 18 -164 65 -66 60 -142 40 -142 -38 0 -61 120 -153 229 -177 46 -10 49
-12 56 -47 8 -44 47 -129 72 -158 43 -48 115 -94 148 -94 46 0 78 29 78 70 0
33 -19 56 -86 102 -25 17 -50 62 -62 109 -6 24 -2 29 37 48 65 31 125 86 158
145 36 62 37 89 5 121 -33 34 -70 32 -103 -4z"/>
</g>
</svg>
